<?xml version="1.0" encoding="UTF-8"?>
<svg version="1.1" xmlns="http://www.w3.org/2000/svg" width="500" height="500">
<path d="M0 0 C165 0 330 0 500 0 C500 165 500 330 500 500 C335 500 170 500 0 500 C0 335 0 170 0 0 Z " fill="#FEFEFE" transform="translate(0,0)"/>
<path d="M0 0 C2.39543532 0.01611279 4.7891846 0.00001457 7.18457031 -0.01904297 C23.91039005 -0.04198604 39.66545964 2.69084005 55.39550781 8.39111328 C56.5754834 8.8186792 56.5754834 8.8186792 57.77929688 9.25488281 C80.50960652 17.63551867 99.85901481 29.59559886 117.39550781 46.39111328 C118.12769531 47.07173828 118.85988281 47.75236328 119.61425781 48.45361328 C144.17027939 71.97205648 160.13764354 104.98345262 165.39550781 138.39111328 C165.56606689 139.45354248 165.73662598 140.51597168 165.91235352 141.6105957 C171.3563952 184.20836501 160.66979672 227.60607694 135.30175781 262.25048828 C133.39236598 264.69026674 131.42700286 267.05229972 129.39550781 269.39111328 C128.6878125 270.20837891 127.98011719 271.02564453 127.25097656 271.86767578 C125.00228172 274.41173334 122.71125407 276.90801057 120.39550781 279.39111328 C119.65945313 280.19291016 118.92339844 280.99470703 118.16503906 281.82080078 C91.60275943 309.67337541 50.83029227 327.85939382 12.46972656 328.81298828 C8.94477261 328.87011027 5.42088614 328.88800459 1.89550781 328.89111328 C0.63427597 328.89757874 0.63427597 328.89757874 -0.6524353 328.9041748 C-35.94334369 328.98166817 -69.65546241 316.76440507 -97.60449219 295.39111328 C-98.53777344 294.68341797 -99.47105469 293.97572266 -100.43261719 293.24658203 C-123.7783878 274.84984174 -140.75595086 250.9758465 -151.60449219 223.39111328 C-151.88663574 222.68051758 -152.1687793 221.96992188 -152.45947266 221.23779297 C-163.38751615 193.07087355 -166.39007363 156.82662694 -158.60449219 127.39111328 C-158.40581543 126.60994141 -158.20713867 125.82876953 -158.00244141 125.02392578 C-150.58043535 96.47005078 -136.50755732 70.98766003 -115.97705078 49.81494141 C-114.76813358 48.56086721 -113.58458647 47.28244135 -112.40527344 46.00048828 C-94.4124509 26.94523242 -69.29834594 13.6547533 -44.47949219 6.01611328 C-43.75415283 5.78964111 -43.02881348 5.56316895 -42.28149414 5.32983398 C-28.4205356 1.32288008 -14.37959784 -0.11440317 0 0 Z " fill="#0D5F90" transform="translate(247.6044921875,85.60888671875)"/>
<path d="M0 0 C1.09231934 0.00491455 2.18463867 0.0098291 3.31005859 0.01489258 C11.78832523 0.13737458 19.50082026 0.97882577 27.6875 3.3125 C28.91210938 3.6528125 30.13671875 3.993125 31.3984375 4.34375 C58.2308163 12.53177487 80.4647772 30.7825949 93.82470703 55.40869141 C105.73142851 78.24856335 110.7118208 107.11821609 103.10058594 132.25048828 C95.11826942 157.57430029 80.64141484 180.13961299 57.6875 194.3125 C56.96046875 194.8075 56.2334375 195.3025 55.484375 195.8125 C33.77843477 209.98780791 6.40955016 213.17370879 -18.875 209.625 C-39.95584247 205.18042999 -57.70121076 195.02214712 -73.3125 180.3125 C-74.32957031 179.40951172 -74.32957031 179.40951172 -75.3671875 178.48828125 C-92.81262965 162.33898641 -102.96931564 137.39934671 -104.53320312 114.01196289 C-105.62365092 82.99657809 -97.62190626 56.45833476 -76.375 33.0234375 C-56.52049597 11.87622588 -29.02104128 -0.15617313 0 0 Z " fill="#41C0C9" transform="translate(249.3125,144.6875)"/>
<path d="M0 0 C2.40081782 1.18288907 4.57528505 2.44344965 6.79620361 3.93347168 C7.59796524 4.46808014 8.39972687 5.0026886 9.2257843 5.55349731 C10.08103195 6.13054413 10.9362796 6.70759094 11.81744385 7.30212402 C12.71414291 7.90181 13.61084198 8.50149597 14.53471375 9.11935425 C17.40141294 11.03793292 20.26378089 12.96286318 23.1260376 14.88806152 C25.95709163 16.785411 28.78892765 18.68152525 31.62362671 20.57342529 C33.45690431 21.80635467 35.28163962 23.05208455 37.09744263 24.31060791 C42.55002726 28.07934641 42.55002726 28.07934641 48.49957275 30.94372559 C52.41085483 32.66555588 54.14297055 33.70378916 56.5635376 37.26306152 C58.77949573 45.25589978 58.7932562 53.52981828 58.78717041 61.76794434 C58.81337204 65.73797671 59.03050797 69.66737636 59.2588501 73.63024902 C59.73924433 91.41938438 59.73924433 91.41938438 54.37661743 97.90997314 C48.71605306 102.82181209 42.31141823 106.26504634 35.65319824 109.63720703 C31.22345648 111.96824476 27.23485233 114.79282216 23.17681885 117.70837402 C21.77637637 118.67173034 20.37342837 119.63145585 18.96783447 120.58728027 C16.87885681 122.013277 14.79485033 123.44478682 12.72149658 124.89343262 C10.6344889 126.34893588 8.53284522 127.78058158 6.42681885 129.20837402 C5.80607986 129.64972687 5.18534088 130.09107971 4.54579163 130.54580688 C2.77960205 131.7244873 2.77960205 131.7244873 -0.4364624 133.26306152 C-3.87618402 132.22267477 -6.69898328 130.58533213 -9.66912842 128.59265137 C-10.47089005 128.05804291 -11.27265167 127.52343445 -12.09870911 126.97262573 C-13.38158058 126.10705551 -13.38158058 126.10705551 -14.69036865 125.22399902 C-15.58706772 124.62431305 -16.48376678 124.02462708 -17.40763855 123.4067688 C-20.27433774 121.48819012 -23.13670569 119.56325987 -25.9989624 117.63806152 C-28.83001644 115.74071205 -31.66185245 113.8445978 -34.49655151 111.95269775 C-36.32982912 110.71976838 -38.15456442 109.4740385 -39.97036743 108.21551514 C-45.42295206 104.44677664 -45.42295206 104.44677664 -51.37249756 101.58239746 C-55.28377964 99.86056716 -57.01589536 98.82233389 -59.4364624 95.26306152 C-61.65242053 87.27022326 -61.666181 78.99630476 -61.66009521 70.75817871 C-61.68629685 66.78814634 -61.90343278 62.85874668 -62.1317749 58.89587402 C-62.61216913 41.10673866 -62.61216913 41.10673866 -57.24954224 34.6161499 C-51.58897786 29.70431096 -45.18434304 26.26107671 -38.52612305 22.88891602 C-34.09638129 20.55787829 -30.10777713 17.73330089 -26.04974365 14.81774902 C-24.64930118 13.8543927 -23.24635317 12.89466719 -21.84075928 11.93884277 C-19.75178161 10.51284605 -17.66777513 9.08133623 -15.59442139 7.63269043 C-13.50741371 6.17718717 -11.40577003 4.74554147 -9.29974365 3.31774902 C-8.67900467 2.87639618 -8.05826569 2.43504333 -7.41871643 1.98031616 C-3.0630646 -0.92646214 -3.0630646 -0.92646214 0 0 Z " fill="#FBFDFD" transform="translate(251.43646240234375,183.7369384765625)"/>
<path d="M0 0 C2.39543532 0.01611279 4.7891846 0.00001457 7.18457031 -0.01904297 C23.91039005 -0.04198604 39.66545964 2.69084005 55.39550781 8.39111328 C56.5754834 8.8186792 56.5754834 8.8186792 57.77929688 9.25488281 C80.50960652 17.63551867 99.85901481 29.59559886 117.39550781 46.39111328 C118.12769531 47.07173828 118.85988281 47.75236328 119.61425781 48.45361328 C144.17027939 71.97205648 160.13764354 104.98345262 165.39550781 138.39111328 C165.56606689 139.45354248 165.73662598 140.51597168 165.91235352 141.6105957 C171.3563952 184.20836501 160.66979672 227.60607694 135.30175781 262.25048828 C133.39236598 264.69026674 131.42700286 267.05229972 129.39550781 269.39111328 C128.6878125 270.20837891 127.98011719 271.02564453 127.25097656 271.86767578 C125.00228172 274.41173334 122.71125407 276.90801057 120.39550781 279.39111328 C119.65945313 280.19291016 118.92339844 280.99470703 118.16503906 281.82080078 C91.60275943 309.67337541 50.83029227 327.85939382 12.46972656 328.81298828 C8.94477261 328.87011027 5.42088614 328.88800459 1.89550781 328.89111328 C0.63427597 328.89757874 0.63427597 328.89757874 -0.6524353 328.9041748 C-35.94334369 328.98166817 -69.65546241 316.76440507 -97.60449219 295.39111328 C-98.53777344 294.68341797 -99.47105469 293.97572266 -100.43261719 293.24658203 C-123.7783878 274.84984174 -140.75595086 250.9758465 -151.60449219 223.39111328 C-151.88663574 222.68051758 -152.1687793 221.96992188 -152.45947266 221.23779297 C-163.38751615 193.07087355 -166.39007363 156.82662694 -158.60449219 127.39111328 C-158.40581543 126.60994141 -158.20713867 125.82876953 -158.00244141 125.02392578 C-150.58043535 96.47005078 -136.50755732 70.98766003 -115.97705078 49.81494141 C-114.76813358 48.56086721 -113.58458647 47.28244135 -112.40527344 46.00048828 C-94.4124509 26.94523242 -69.29834594 13.6547533 -44.47949219 6.01611328 C-43.75415283 5.78964111 -43.02881348 5.56316895 -42.28149414 5.32983398 C-28.4205356 1.32288008 -14.37959784 -0.11440317 0 0 Z M-110.60449219 52.39111328 C-111.24902344 52.98279297 -111.89355469 53.57447266 -112.55761719 54.18408203 C-137.94692003 78.20900645 -154.84296911 116.66209006 -156.08625793 151.42961121 C-156.15287543 155.04838108 -156.15966748 158.66353229 -156.12597656 162.28271484 C-156.10443911 165.02286605 -156.12597804 167.76041294 -156.15136719 170.50048828 C-156.17061463 182.27590237 -154.75892901 193.0503375 -151.60449219 204.39111328 C-151.3221875 205.41301758 -151.03988281 206.43492187 -150.74902344 207.48779297 C-150.00677572 209.99980298 -149.20546335 212.47653395 -148.35449219 214.95361328 C-148.05929688 215.8229248 -147.76410156 216.69223633 -147.45996094 217.58789062 C-143.02428077 230.29407279 -137.36913717 242.3649863 -129.60449219 253.39111328 C-128.58935547 254.83357422 -128.58935547 254.83357422 -127.55371094 256.30517578 C-122.07872791 263.83206186 -116.06249312 270.70211589 -109.60449219 277.39111328 C-109.07025635 277.94871338 -108.53602051 278.50631348 -107.9855957 279.08081055 C-81.82540688 305.88382847 -42.70883695 322.52483012 -5.35531616 322.99073792 C-2.64622349 322.99811809 0.06154345 322.97982149 2.77050781 322.95361328 C4.178013 322.94772186 4.178013 322.94772186 5.61395264 322.94171143 C19.75006928 322.85840743 32.91028759 321.93214654 46.39550781 317.39111328 C47.88878122 316.92817582 49.38226965 316.46593135 50.87597656 316.00439453 C91.69772934 302.8826292 124.72787388 273.92006743 144.66088867 236.14794922 C148.65667347 228.1964112 151.56522048 219.81234719 154.39550781 211.39111328 C154.79769531 210.23224609 155.19988281 209.07337891 155.61425781 207.87939453 C168.05583833 168.81094663 161.58724856 125.73789485 143.07910156 89.85986328 C122.76278164 51.46310636 88.31465152 24.8145297 47.21728516 11.69580078 C33.16492147 7.42090603 19.49017871 6.05584002 4.89355469 6.13037109 C2.39916689 6.14109755 -0.09450101 6.13041214 -2.58886719 6.11767578 C-44.36960713 6.07570149 -80.82937948 24.06951939 -110.60449219 52.39111328 Z " fill="#156494" transform="translate(247.6044921875,85.60888671875)"/>
<path d="M0 0 C1.18203758 -0.00855011 1.18203758 -0.00855011 2.38795471 -0.01727295 C4.04760427 -0.02665164 5.70727184 -0.03322824 7.36694336 -0.03710938 C9.84198723 -0.04673147 12.31616864 -0.07778856 14.79101562 -0.109375 C30.2628836 -0.21454252 44.91177972 1.76822569 59.56640625 6.890625 C60.58138184 7.23802734 61.59635742 7.58542969 62.64208984 7.94335938 C70.64966733 10.76105188 78.21991305 14.09780831 85.64306641 18.20751953 C87.46466614 19.21600225 89.30110865 20.19262213 91.140625 21.16796875 C98.97334348 25.39599967 105.78978771 30.29909471 112.44140625 36.203125 C113.41851562 37.0590625 114.395625 37.915 115.40234375 38.796875 C146.15594993 66.10314507 165.89931497 103.99823052 169.44140625 145.203125 C171.70939139 189.17262868 158.49443952 231.24740499 129.078125 264.3203125 C109.43108788 285.80107308 84.68233534 302.570127 56.49267578 310.60449219 C55.10094888 311.01064719 53.71636131 311.44194352 52.33935547 311.89550781 C38.67745272 316.34805296 25.05216512 316.71104144 10.81640625 316.765625 C9.91096069 316.77429596 9.00551514 316.78296692 8.07263184 316.79190063 C-34.15092753 317.07218775 -71.00801927 299.63633293 -101.55859375 271.203125 C-102.57566406 270.26726562 -102.57566406 270.26726562 -103.61328125 269.3125 C-120.88988065 252.79912387 -133.54028587 230.37735888 -140.80859375 207.765625 C-141.03063477 207.07621826 -141.25267578 206.38681152 -141.48144531 205.67651367 C-142.23418065 203.1987131 -142.90262076 200.70843724 -143.55859375 198.203125 C-143.90277344 196.93114258 -144.24695313 195.65916016 -144.6015625 194.34863281 C-147.40922381 183.37186189 -148.18485315 172.87990842 -148.08007812 161.57226562 C-148.05865801 158.83633304 -148.08000073 156.10304078 -148.10546875 153.3671875 C-148.13130026 137.41019728 -145.68715108 121.89338646 -140.49609375 106.765625 C-140.20500732 105.91129883 -139.9139209 105.05697266 -139.61401367 104.17675781 C-131.60265859 81.72773928 -118.22000934 62.07910067 -101.55859375 45.203125 C-101.018396 44.64246338 -100.47819824 44.08180176 -99.92163086 43.50415039 C-74.67518317 17.62360256 -36.2435314 0.21149766 0 0 Z M-104.55859375 55.203125 C-106.77516628 57.80316225 -108.86982656 60.48072215 -110.93359375 63.203125 C-111.49449707 63.94224121 -112.05540039 64.68135742 -112.63330078 65.44287109 C-133.90135466 93.90372602 -144.1474778 127.3417131 -143.59570312 162.79980469 C-143.56512036 164.78044086 -143.55171424 166.76133454 -143.54296875 168.7421875 C-142.21944692 206.84070864 -122.14318118 243.8913749 -95.55859375 270.203125 C-70.37038682 293.67011218 -36.00275514 311.08960254 -1.046875 311.44140625 C0.15593361 311.45616501 0.15593361 311.45616501 1.38304138 311.47122192 C25.69442589 311.82289604 25.69442589 311.82289604 49.44140625 307.203125 C50.71806152 306.8330835 50.71806152 306.8330835 52.02050781 306.45556641 C64.14429164 302.89707202 75.38258651 298.2980427 86.44140625 292.203125 C87.34890625 291.71199219 88.25640625 291.22085937 89.19140625 290.71484375 C123.51951101 271.18523287 148.69481731 236.62418577 159.09814453 198.81640625 C160.2393416 194.30013984 161.20436219 189.75978882 162.06689453 185.18261719 C162.3970374 183.43763781 162.75861109 181.69866777 163.125 179.9609375 C166.05910874 164.37980832 165.08199883 147.76256609 162.44140625 132.203125 C162.16683594 130.54216797 162.16683594 130.54216797 161.88671875 128.84765625 C154.38731563 89.36005835 130.89865669 55.13071131 98.62890625 31.578125 C33.87332798 -11.86810962 -51.55034594 -1.64553923 -104.55859375 55.203125 Z " fill="#F2F6F9" transform="translate(239.55859375,91.796875)"/>
<path d="M0 0 C1.09231934 0.00491455 2.18463867 0.0098291 3.31005859 0.01489258 C11.78832523 0.13737458 19.50082026 0.97882577 27.6875 3.3125 C28.91210938 3.6528125 30.13671875 3.993125 31.3984375 4.34375 C58.2308163 12.53177487 80.4647772 30.7825949 93.82470703 55.40869141 C105.73142851 78.24856335 110.7118208 107.11821609 103.10058594 132.25048828 C95.11826942 157.57430029 80.64141484 180.13961299 57.6875 194.3125 C56.96046875 194.8075 56.2334375 195.3025 55.484375 195.8125 C33.77843477 209.98780791 6.40955016 213.17370879 -18.875 209.625 C-39.95584247 205.18042999 -57.70121076 195.02214712 -73.3125 180.3125 C-74.32957031 179.40951172 -74.32957031 179.40951172 -75.3671875 178.48828125 C-92.81262965 162.33898641 -102.96931564 137.39934671 -104.53320312 114.01196289 C-105.62365092 82.99657809 -97.62190626 56.45833476 -76.375 33.0234375 C-56.52049597 11.87622588 -29.02104128 -0.15617313 0 0 Z M-67.3125 31.3125 C-68.00472656 31.92351562 -68.69695312 32.53453125 -69.41015625 33.1640625 C-85.60439104 48.29585246 -98.35816019 72.5673422 -99.43530273 94.85327148 C-100.27413116 124.4111374 -93.69623694 150.86176207 -73.4375 173.125 C-54.39266177 193.23421442 -30.08583464 204.74718339 -2.34594727 205.6953125 C15.03460166 206.01524372 31.36445427 202.66490043 46.6875 194.3125 C47.67621094 193.80074219 48.66492188 193.28898438 49.68359375 192.76171875 C66.55688638 183.56807816 79.2888292 169.961574 88.6875 153.3125 C89.39712891 152.06339844 89.39712891 152.06339844 90.12109375 150.7890625 C101.72106302 129.034603 104.11161595 103.02859722 97.6875 79.3125 C93.44728275 65.41289368 87.19544555 52.38856183 77.6875 41.3125 C76.99785156 40.49007812 76.30820312 39.66765625 75.59765625 38.8203125 C63.87798723 25.26751424 49.35714367 16.5606354 32.6875 10.3125 C31.92050781 10.01601562 31.15351563 9.71953125 30.36328125 9.4140625 C-2.88676115 -2.64430117 -41.76898608 8.07587157 -67.3125 31.3125 Z " fill="#F6FAFB" transform="translate(249.3125,144.6875)"/>
<path d="M0 0 C6.6 0 13.2 0 20 0 C20 6.93 20 13.86 20 21 C26.93 21 33.86 21 41 21 C41 27.6 41 34.2 41 41 C34.07 41 27.14 41 20 41 C20 47.93 20 54.86 20 62 C13.4 62 6.8 62 0 62 C0 55.07 0 48.14 0 41 C-6.93 41 -13.86 41 -21 41 C-21 34.4 -21 27.8 -21 21 C-14.07 21 -7.14 21 0 21 C0 14.07 0 7.14 0 0 Z " fill="#41C0C9" transform="translate(240,219)"/>
<path d="M0 0 C2.64 0 5.28 0 8 0 C9.65 5.28 11.3 10.56 13 16 C16.21261209 8.07826144 16.21261209 8.07826144 19 0 C21.31 0 23.62 0 26 0 C26.33773437 0.83144531 26.67546875 1.66289063 27.0234375 2.51953125 C27.46945313 3.60621094 27.91546875 4.69289063 28.375 5.8125 C28.81585938 6.89144531 29.25671875 7.97039062 29.7109375 9.08203125 C30.9479119 12.10730112 30.9479119 12.10730112 33 15 C34.65 10.05 36.3 5.1 38 0 C40.31 0 42.62 0 45 0 C42.6834524 9.77470084 39.88329377 19.38142315 37 29 C34.69 29 32.38 29 30 29 C29.17934931 27.12855305 28.3688416 25.25265664 27.5625 23.375 C26.88380859 21.80878906 26.88380859 21.80878906 26.19140625 20.2109375 C25.04198295 17.11314749 24.42688777 14.26789946 24 11 C23.34 11 22.68 11 22 11 C21.83564453 11.81791016 21.83564453 11.81791016 21.66796875 12.65234375 C20.48990063 18.25535065 18.912965 23.6054387 17 29 C14.69 29 12.38 29 10 29 C5.89232598 19.60067533 3.01482087 9.78811843 0 0 Z " fill="#F7FAFB" transform="translate(225,108)"/>
<path d="M0 0 C5.94 1.98 11.88 3.96 18 6 C17.67 7.98 17.34 9.96 17 12 C12.71 11.01 8.42 10.02 4 9 C3.34 10.65 2.68 12.3 2 14 C2.62648438 14.12117188 3.25296875 14.24234375 3.8984375 14.3671875 C5.12433594 14.61855469 5.12433594 14.61855469 6.375 14.875 C7.59316406 15.11863281 7.59316406 15.11863281 8.8359375 15.3671875 C11 16 11 16 13 18 C12.34 19.32 11.68 20.64 11 22 C7.37 21.34 3.74 20.68 0 20 C-0.99 22.475 -0.99 22.475 -2 25 C-1.30132812 25.20496094 -0.60265625 25.40992188 0.1171875 25.62109375 C1.02726562 25.89050781 1.93734375 26.15992188 2.875 26.4375 C3.77992188 26.70433594 4.68484375 26.97117188 5.6171875 27.24609375 C8 28 8 28 10 29 C9.67 30.65 9.34 32.3 9 34 C2.28460827 32.70024676 -3.72019113 30.70071112 -10 28 C-9.36354785 24.42718907 -8.42790654 21.14302206 -7.1875 17.734375 C-6.83429688 16.76242188 -6.48109375 15.79046875 -6.1171875 14.7890625 C-5.74851562 13.78617188 -5.37984375 12.78328125 -5 11.75 C-4.44699219 10.22246094 -4.44699219 10.22246094 -3.8828125 8.6640625 C-1.13058036 1.13058036 -1.13058036 1.13058036 0 0 Z " fill="#F2F6F9" transform="translate(290,113)"/>
<path d="M0 0 C0.33 1.65 0.66 3.3 1 5 C-0.4562545 5.67119549 -1.91507867 6.33681807 -3.375 7 C-4.59316406 7.556875 -4.59316406 7.556875 -5.8359375 8.125 C-8 9 -8 9 -10 9 C-9.67 10.98 -9.34 12.96 -9 15 C-8.30132812 14.71125 -7.60265625 14.4225 -6.8828125 14.125 C-5.97273437 13.75375 -5.06265625 13.3825 -4.125 13 C-3.22007812 12.62875 -2.31515625 12.2575 -1.3828125 11.875 C1 11 1 11 3 11 C3.33 12.98 3.66 14.96 4 17 C-0.95 18.485 -0.95 18.485 -6 20 C-5.34 21.65 -4.68 23.3 -4 25 C-1.29668527 24.53657462 1.07550858 23.969437 3.625 22.9375 C6 22 6 22 9 22 C9.33 23.65 9.66 25.3 10 27 C4.08617325 29.8018492 -1.630594 32.44303409 -8 34 C-10.67805672 27.67522774 -13.29877748 21.32953727 -15.8125 14.9375 C-16.23144531 13.87402344 -16.65039062 12.81054688 -17.08203125 11.71484375 C-18 9 -18 9 -18 6 C-15.56495491 4.9936345 -13.12729136 3.99473587 -10.6875 3 C-9.65206055 2.57074219 -9.65206055 2.57074219 -8.59570312 2.1328125 C-5.58454326 0.91089256 -3.28113016 0 0 0 Z " fill="#F4F8FA" transform="translate(207,114)"/>
<path d="M0 0 C2.4375 1.8125 2.4375 1.8125 4 4 C4 4.99 4 5.98 4 7 C6.64 6.67 9.28 6.34 12 6 C11.67 7.65 11.34 9.3 11 11 C6.545 11.495 6.545 11.495 2 12 C2.66868314 15.11332248 2.66868314 15.11332248 5.0625 16.1875 C5.701875 16.455625 6.34125 16.72375 7 17 C6.67 18.65 6.34 20.3 6 22 C-0.93998648 19.83836487 -7.43117569 17.1063786 -14 14 C-13.1224425 9.11548182 -11.51393087 5.2708963 -8.75 1.125 C-5.80296913 -0.76951984 -3.39167268 -0.41652121 0 0 Z " fill="#F1F6F9" transform="translate(370,293)"/>
<path d="M0 0 C3.0432531 1.9874306 4.62073803 3.32041127 5.4375 6.9375 C5.67021319 10.77726765 5.23162678 12.63711804 3.125 15.9375 C0.20157849 18.77493852 -0.63926349 18.96451772 -4.8125 19.375 C-8.16084564 19.30791111 -9.03191618 18.97938747 -12 17.0625 C-14.33179981 13.49193154 -14.74577495 11.3549794 -14.47265625 7.16015625 C-14 5 -14 5 -12.0625 1.9375 C-7.94608077 -0.66676523 -4.7460093 -1.04704003 0 0 Z " fill="#40BEC7" transform="translate(126,234)"/>
<path d="M0 0 C2.16015625 0.47265625 2.16015625 0.47265625 5.22265625 2.41015625 C7.80440882 6.49099096 8.13807749 9.75925205 7.16015625 14.47265625 C5.28395012 16.97426443 3.92124322 18.09211277 1.16015625 19.47265625 C-3.02128386 19.86713173 -5.14930423 19.92300811 -8.71484375 17.59765625 C-11.62695033 14.68554967 -11.8005268 13.87237855 -12.21484375 9.66015625 C-12.14775486 6.31181061 -11.81923122 5.44074007 -9.90234375 2.47265625 C-6.33177529 0.14085644 -4.19482315 -0.2731187 0 0 Z " fill="#40BEC8" transform="translate(380.83984375,233.52734375)"/>
<path d="M0 0 C3.22096962 1.17306918 4.66735881 2.54041676 6.359375 5.4765625 C6.75253906 6.146875 7.14570313 6.8171875 7.55078125 7.5078125 C7.94652344 8.20648438 8.34226562 8.90515625 8.75 9.625 C9.16121094 10.33140625 9.57242187 11.0378125 9.99609375 11.765625 C11.00680263 13.50498447 12.00467105 15.25179403 13 17 C12.34 17.99 11.68 18.98 11 20 C7.33827525 19.37321829 4.1181005 18.35548154 0.6875 16.9375 C-0.19550781 16.57527344 -1.07851563 16.21304687 -1.98828125 15.83984375 C-2.65214844 15.56269531 -3.31601562 15.28554688 -4 15 C-3.44119141 15.79664063 -3.44119141 15.79664063 -2.87109375 16.609375 C-2.39800781 17.31578125 -1.92492187 18.0221875 -1.4375 18.75 C-0.96183594 19.44609375 -0.48617188 20.1421875 0.00390625 20.859375 C1 23 1 23 0.83984375 25.203125 C0.56269531 25.79609375 0.28554688 26.3890625 0 27 C-0.99 27.33 -1.98 27.66 -3 28 C-4.8709296 25.24014502 -6.71870642 22.46554222 -8.5625 19.6875 C-9.36204102 18.50897461 -9.36204102 18.50897461 -10.17773438 17.30664062 C-10.67724609 16.54931641 -11.17675781 15.79199219 -11.69140625 15.01171875 C-12.15748291 14.31522217 -12.62355957 13.61872559 -13.10375977 12.90112305 C-14 11 -14 11 -13 8 C-8.90739982 6.63579994 -6.52987341 8.2335485 -2.8125 9.9375 C-2.15830078 10.22818359 -1.50410156 10.51886719 -0.83007812 10.81835938 C0.78381344 11.53695343 2.39243655 12.2673588 4 13 C3.566875 12.38511719 3.13375 11.77023437 2.6875 11.13671875 C2.130625 10.32847656 1.57375 9.52023437 1 8.6875 C0.1646875 7.48673828 0.1646875 7.48673828 -0.6875 6.26171875 C-2 4 -2 4 -2 1 C-1.34 0.67 -0.68 0.34 0 0 Z " fill="#F3F7F9" transform="translate(320,347)"/>
<path d="M0 0 C1.65 0.66 3.3 1.32 5 2 C5 5.38650892 4.50730249 6.05739878 2.59375 8.72265625 C2.09746094 9.42583984 1.60117187 10.12902344 1.08984375 10.85351562 C0.56519531 11.58248047 0.04054688 12.31144531 -0.5 13.0625 C-1.53540182 14.50875537 -2.56686209 15.95784335 -3.59375 17.41015625 C-4.05458984 18.05090088 -4.51542969 18.69164551 -4.99023438 19.35180664 C-6.17413502 20.96207966 -6.17413502 20.96207966 -6 23 C-4.21276059 24.58455866 -4.21276059 24.58455866 -2 26.125 C-1.2575 26.66382813 -0.515 27.20265625 0.25 27.7578125 C0.8275 28.16773438 1.405 28.57765625 2 29 C1.67 30.32 1.34 31.64 1 33 C-0.79785156 33.63061523 -0.79785156 33.63061523 -3 34 C-5.42573098 32.43264967 -7.54062361 30.89069827 -9.75 29.0625 C-10.35199219 28.58103516 -10.95398438 28.09957031 -11.57421875 27.60351562 C-13.05861023 26.41364626 -14.53054438 25.20826626 -16 24 C-14.71427532 20.47710665 -13.20776926 17.63299976 -10.99609375 14.609375 C-10.42052734 13.81789062 -9.84496094 13.02640625 -9.25195312 12.2109375 C-8.35379883 10.99277344 -8.35379883 10.99277344 -7.4375 9.75 C-6.83486328 8.92242187 -6.23222656 8.09484375 -5.61132812 7.2421875 C-1.19462386 1.19462386 -1.19462386 1.19462386 0 0 Z " fill="#F6F9FB" transform="translate(326,130)"/>
<path d="M0 0 C1.09716797 1.71582031 1.09716797 1.71582031 2 4 C1.49267578 6.19824219 1.49267578 6.19824219 0.4453125 8.546875 C-0.10576172 9.81337891 -0.10576172 9.81337891 -0.66796875 11.10546875 C-1.06628906 11.97816406 -1.46460938 12.85085938 -1.875 13.75 C-2.26558594 14.63816406 -2.65617187 15.52632813 -3.05859375 16.44140625 C-4.0252985 18.63417557 -5.006035 20.81948533 -6 23 C-6.99 23 -7.98 23 -9 23 C-9.66 22.01 -10.32 21.02 -11 20 C-10.67 19.01 -10.34 18.02 -10 17 C-12.16588845 14.333492 -12.16588845 14.333492 -15 12 C-17.760165 12.04979584 -17.760165 12.04979584 -20 13 C-20.99 11.68 -21.98 10.36 -23 9 C-4.75 -0.125 -4.75 -0.125 0 0 Z " fill="#EFF4F7" transform="translate(169,337)"/>
<path d="M0 0 C0.33 1.65 0.66 3.3 1 5 C-1.31 5.66 -3.62 6.32 -6 7 C-5.67 7.763125 -5.34 8.52625 -5 9.3125 C-4 12 -4 12 -4 15 C-3.278125 14.649375 -2.55625 14.29875 -1.8125 13.9375 C1.3122705 12.89590983 2.88161996 13.10903428 6 14 C5.71826172 15.87988281 5.71826172 15.87988281 5 18 C2.3616798 19.45196145 -0.10297218 20.62672612 -2.875 21.75 C-3.60847656 22.06582031 -4.34195313 22.38164062 -5.09765625 22.70703125 C-10.54717938 25 -10.54717938 25 -14 25 C-14.33 23.68 -14.66 22.36 -15 21 C-10.25 18 -10.25 18 -8 18 C-8.99 15.69 -9.98 13.38 -11 11 C-13.64 11.66 -16.28 12.32 -19 13 C-19.66 11.35 -20.32 9.7 -21 8 C-18.06657102 6.65757579 -15.12763748 5.32765933 -12.1875 4 C-11.35412109 3.6184375 -10.52074219 3.236875 -9.66210938 2.84375 C-8.85966797 2.4828125 -8.05722656 2.121875 -7.23046875 1.75 C-6.49207764 1.41484375 -5.75368652 1.0796875 -4.99291992 0.734375 C-3 0 -3 0 0 0 Z " fill="#F0F5F8" transform="translate(139,291)"/>
<path d="M0 0 C1.65 0 3.3 0 5 0 C5.125 6.75 5.125 6.75 4 9 C6.97 9.33 9.94 9.66 13 10 C13.33 7.36 13.66 4.72 14 2 C16.475 2.495 16.475 2.495 19 3 C18.01 9.93 17.02 16.86 16 24 C14.35 24 12.7 24 11 24 C10.875 17.25 10.875 17.25 12 15 C9.03 14.67 6.06 14.34 3 14 C2.67 16.64 2.34 19.28 2 22 C0.35 22 -1.3 22 -3 22 C-2.24984418 14.62346781 -1.16558465 7.32168224 0 0 Z " fill="#EFF4F8" transform="translate(221,367)"/>
<path d="M0 0 C3.13150836 1.36152537 4.55823799 2.26372999 6.3125 5.1875 C6.539375 5.785625 6.76625 6.38375 7 7 C5.00045254 7.04254356 2.99958364 7.04080783 1 7 C0.67 6.67 0.34 6.34 0 6 C-3.45821402 5.74996036 -3.45821402 5.74996036 -7 6 C-7.66 6.66 -8.32 7.32 -9 8 C-8.76135558 13.03505052 -8.76135558 13.03505052 -6 17 C-3.58582128 17.58402133 -3.58582128 17.58402133 -1 17 C-0.34 16.175 0.32 15.35 1 14.5 C3 12 3 12 5.75 11.6875 C6.86375 11.8421875 6.86375 11.8421875 8 12 C7.79164195 15.64626587 6.99170491 17.00957126 4.5625 19.8125 C1.02534016 22.50381727 -2.30547091 22.7096761 -6.65625 22.5 C-10.24585412 21.73421779 -11.86994058 19.88588695 -14 17 C-15.61429923 13.77140153 -15.59570657 10.49006347 -15 7 C-11.34916691 0.63828712 -7.07430314 -0.76038575 0 0 Z " fill="#EFF4F8" transform="translate(274,368)"/>
<path d="M0 0 C3 0 3 0 4.44213867 1.43359375 C6.04426056 3.60898108 7.62880121 5.79322032 9.1875 8 C9.74630859 8.74378906 10.30511719 9.48757812 10.88085938 10.25390625 C14.5607861 15.42108053 15.82227866 18.65474964 15 25 C12.64842388 29.00638894 10.41832494 30.64995627 6 32 C5.01 31.01 4.02 30.02 3 29 C4 26 4 26 7 24 C6.60582687 18.31674019 4.98044977 14.88674344 1.4375 10.5625 C0.80038086 9.75135742 0.80038086 9.75135742 0.15039062 8.92382812 C-0.88745381 7.60611552 -1.94203699 6.3016151 -3 5 C-1.125 1.125 -1.125 1.125 0 0 Z " fill="#F3F7F9" transform="translate(168,132)"/>
<path d="M0 0 C0 1.32 0 2.64 0 4 C-3.465 5.485 -3.465 5.485 -7 7 C-7 8.32 -7 9.64 -7 11 C-4.03 10.01 -1.06 9.02 2 8 C2.33 9.32 2.66 10.64 3 12 C-0.465 13.485 -0.465 13.485 -4 15 C-3.67 15.99 -3.34 16.98 -3 18 C-0.03 17.34 2.94 16.68 6 16 C6.33 17.32 6.66 18.64 7 20 C5.23244474 20.84026396 3.46082737 21.67198722 1.6875 22.5 C0.70136719 22.9640625 -0.28476562 23.428125 -1.30078125 23.90625 C-4 25 -4 25 -7 25 C-7.98143209 22.25078962 -8.9602233 19.50068729 -9.9375 16.75 C-10.21529297 15.97269531 -10.49308594 15.19539063 -10.77929688 14.39453125 C-11.18051758 13.26337891 -11.18051758 13.26337891 -11.58984375 12.109375 C-11.83597412 11.41811523 -12.08210449 10.72685547 -12.33569336 10.01464844 C-12.99141247 8.02604347 -13.51867386 6.03714797 -14 4 C-12.23141309 3.32739649 -10.46003984 2.66211605 -8.6875 2 C-7.70136719 1.62875 -6.71523438 1.2575 -5.69921875 0.875 C-3 0 -3 0 0 0 Z " fill="#EFF4F7" transform="translate(300,360)"/>
<path d="M0 0 C1.32 0.33 2.64 0.66 4 1 C2.80100302 4.0831351 1.52299523 7.06279492 0 10 C0.99 10.33 1.98 10.66 3 11 C4.32 9.35 5.64 7.7 7 6 C8.32 6.66 9.64 7.32 11 8 C9.68 10.31 8.36 12.62 7 15 C8.32 15.66 9.64 16.32 11 17 C11.2475 16.21625 11.495 15.4325 11.75 14.625 C13 12 13 12 15 10.625 C17 10 17 10 19 11 C17.40956621 16.08938811 14.2553049 19.87456643 11 24 C4.87584657 20.15717678 -1.16865561 16.27631922 -7 12 C-5.44298069 7.32894208 -2.91552627 3.91294315 0 0 Z " fill="#F0F5F8" transform="translate(351,313)"/>
<path d="M0 0 C3.0856141 1.33467676 4.84376111 2.65088395 6.8125 5.375 C7.25207031 5.96023438 7.69164062 6.54546875 8.14453125 7.1484375 C9.22877115 9.49514852 8.85573613 10.61653863 8 13 C5.00675737 11.9024777 4.15389099 11.32317108 2.75 8.375 C2.5025 7.59125 2.255 6.8075 2 6 C1.01 6.66 0.02 7.32 -1 8 C-0.67 8.7425 -0.34 9.485 0 10.25 C1 13 1 13 1 17 C-2.79588866 16.45773019 -4.47211993 14.79872437 -7 12 C-7.88556744 13.68973726 -7.88556744 13.68973726 -8 16 C-6.14749996 19.23761134 -6.14749996 19.23761134 -4 22 C-5.98 22.99 -5.98 22.99 -8 24 C-10.64 20.37 -13.28 16.74 -16 13 C-11.3126338 7.82773385 -5.68271819 4.01074507 0 0 Z " fill="#F1F5F8" transform="translate(148,315)"/>
<path d="M0 0 C1.32 0.66 2.64 1.32 4 2 C4 2.66 4 3.32 4 4 C3.01 4.66 2.02 5.32 1 6 C1.51776621 10.10447392 3.64627444 11.95699523 6.5625 14.75 C7.38878906 15.54921875 8.21507812 16.3484375 9.06640625 17.171875 C9.70449219 17.77515625 10.34257812 18.3784375 11 19 C10.34 20.32 9.68 21.64 9 23 C4.62170683 21.15290757 2.12120954 18.06291142 -1 14.58203125 C-2.84611297 12.7581619 -2.84611297 12.7581619 -5.0625 13.13671875 C-7.25475721 14.04847429 -7.25475721 14.04847429 -10 16 C-10.66 14.68 -11.32 13.36 -12 12 C-8.04 8.04 -4.08 4.08 0 0 Z " fill="#F2F6F9" transform="translate(339,330)"/>
<path d="M0 0 C4.05819183 0.65503282 7.53971282 1.94559121 11.3125 3.5625 C12.38113281 4.01753906 13.44976562 4.47257812 14.55078125 4.94140625 C15.76314453 5.46541016 15.76314453 5.46541016 17 6 C16.67 7.32 16.34 8.64 16 10 C11.25 9.125 11.25 9.125 9 8 C8.81824219 8.65226562 8.63648438 9.30453125 8.44921875 9.9765625 C7.02533404 14.92730011 5.50592766 19.46546423 3 24 C1.68 23.34 0.36 22.68 -1 22 C-0.37321829 18.33827525 0.64451846 15.1181005 2.0625 11.6875 C2.42472656 10.80449219 2.78695312 9.92148437 3.16015625 9.01171875 C3.57587891 8.01591797 3.57587891 8.01591797 4 7 C2.35 6.01 0.7 5.02 -1 4 C-0.67 2.68 -0.34 1.36 0 0 Z " fill="#F1F6F8" transform="translate(198,359)"/>
<path d="M0 0 C1.32 0.33 2.64 0.66 4 1 C4 4.93974955 2.52210525 6.82936093 0.5 10.1875 C-0.47453125 11.81751953 -0.47453125 11.81751953 -1.46875 13.48046875 C-2.22671875 14.72763672 -2.22671875 14.72763672 -3 16 C0.32086771 18.77000825 0.32086771 18.77000825 4 21 C3.34 22.32 2.68 23.64 2 25 C-2.30764815 23.43358249 -6.06171464 21.31663844 -10 19 C-9.47868283 14.04274768 -7.14796788 10.71792007 -4.4375 6.6875 C-4.01275391 6.04232422 -3.58800781 5.39714844 -3.15039062 4.73242188 C-2.10733607 3.15026046 -1.05462128 1.57447499 0 0 Z " fill="#F1F5F8" transform="translate(181,349)"/>
<path d="M0 0 C1.67542976 0.28604898 3.34385343 0.61781233 5 1 C4.67 3.31 4.34 5.62 4 8 C2.02 7.34 0.04 6.68 -2 6 C-1.125 1.125 -1.125 1.125 0 0 Z " fill="#166594" transform="translate(364,298)"/>
<path d="M0 0 C-0.66 2.31 -1.32 4.62 -2 7 C-4 5.625 -4 5.625 -6 4 C-6 3.34 -6 2.68 -6 2 C-2.25 0 -2.25 0 0 0 Z " fill="#1F6B98" transform="translate(164,343)"/>
</svg>
